<?xml version="1.0" encoding="UTF-8" standalone="no"?>
<!-- Created with Inkscape (http://www.inkscape.org/) -->

<svg
   width="297mm"
   height="210mm"
   viewBox="0 0 297 210"
   version="1.1"
   id="svg1"
   inkscape:version="1.4 (e7c3feb100, 2024-10-09)"
   sodipodi:docname="11.1.2-1 – Estou usando um MacOS para acessar a interface web BookStack.svg"
   inkscape:export-filename="11.1.2-1 – Estou usando um MacOS para acessar a interface web BookStack.png"
   inkscape:export-xdpi="96"
   inkscape:export-ydpi="96"
   xmlns:inkscape="http://www.inkscape.org/namespaces/inkscape"
   xmlns:sodipodi="http://sodipodi.sourceforge.net/DTD/sodipodi-0.dtd"
   xmlns="http://www.w3.org/2000/svg"
   xmlns:svg="http://www.w3.org/2000/svg">
  <sodipodi:namedview
     id="namedview1"
     pagecolor="#ffffff"
     bordercolor="#000000"
     borderopacity="0.25"
     inkscape:showpageshadow="2"
     inkscape:pageopacity="0.0"
     inkscape:pagecheckerboard="0"
     inkscape:deskcolor="#d1d1d1"
     inkscape:document-units="mm"
     inkscape:zoom="0.76078844"
     inkscape:cx="947.70105"
     inkscape:cy="508.68281"
     inkscape:window-width="1920"
     inkscape:window-height="1043"
     inkscape:window-x="0"
     inkscape:window-y="0"
     inkscape:window-maximized="1"
     inkscape:current-layer="layer1" />
  <defs
     id="defs1" />
  <g
     inkscape:label="Camada 1"
     inkscape:groupmode="layer"
     id="layer1">
    <rect
       style="fill:#1a1a1a;fill-opacity:1;stroke:#000000;stroke-width:0;stroke-dasharray:none;stroke-opacity:1"
       id="rect6"
       width="51.425667"
       height="34.64016"
       x="26.512846"
       y="79.507111"
       ry="1.8175392" />
    <rect
       style="fill:#cccccc;fill-opacity:1;stroke:#000000;stroke-width:0;stroke-dasharray:none;stroke-opacity:1"
       id="rect6-4"
       width="63.975208"
       height="1.9811051"
       x="20.241377"
       y="113.97722"
       ry="0.10394686" />
    <rect
       style="fill:#cccccc;fill-opacity:1;stroke:#000000;stroke-width:0;stroke-dasharray:none;stroke-opacity:1"
       id="rect6-5"
       width="47.457638"
       height="30.577427"
       x="28.383299"
       y="81.489075"
       ry="1.604371" />
    <text
       xml:space="preserve"
       style="font-size:6.63933px;font-family:sans-serif;-inkscape-font-specification:'sans-serif, Normal';text-align:start;writing-mode:lr-tb;direction:ltr;text-anchor:start;fill:#000000;stroke-width:0.0995893"
       x="49.237011"
       y="98.295532"
       id="text16-8-6-9-9"><tspan
         sodipodi:role="line"
         id="tspan16-0-0-0-5"
         style="font-style:normal;font-variant:normal;font-weight:bold;font-stretch:normal;font-size:6.63933px;font-family:'Noto Sans Adlam';-inkscape-font-specification:'Noto Sans Adlam, Bold';font-variant-ligatures:normal;font-variant-caps:normal;font-variant-numeric:normal;font-variant-east-asian:normal;fill:#000000;stroke-width:0.0995893"
         x="49.237011"
         y="98.295532">MacOS</tspan></text>
    <path
       style="fill:#ffaaaa;fill-opacity:1;stroke:#000000;stroke-width:0;stroke-dasharray:none;stroke-opacity:1"
       id="path6-5"
       sodipodi:type="arc"
       sodipodi:cx="52.150982"
       sodipodi:cy="80.554939"
       sodipodi:rx="0.39242324"
       sodipodi:ry="0.4543848"
       sodipodi:start="3.17482"
       sodipodi:end="3.1616747"
       sodipodi:open="true"
       sodipodi:arc-type="arc"
       d="m 51.758775,80.539844 a 0.39242324,0.4543848 0 0 1 0.403955,-0.439086 0.39242324,0.4543848 0 0 1 0.380536,0.466291 0.39242324,0.4543848 0 0 1 -0.401454,0.442151 0.39242324,0.4543848 0 0 1 -0.383174,-0.463385" />
    <rect
       style="fill:#b3b3b3;fill-opacity:1;stroke:#000000;stroke-width:0;stroke-dasharray:none;stroke-opacity:1"
       id="rect7-3"
       width="24.162579"
       height="2.3521092"
       x="49.880779"
       y="84.884956"
       ry="0" />
    <rect
       style="fill:#b3b3b3;fill-opacity:1;stroke:#000000;stroke-width:0;stroke-dasharray:none;stroke-opacity:1"
       id="rect7-1-5"
       width="24.162579"
       height="2.3521092"
       x="49.96896"
       y="88.423569"
       ry="0" />
    <rect
       style="fill:#4d4d4d;fill-opacity:1;stroke:#000000;stroke-width:0;stroke-dasharray:none;stroke-opacity:1"
       id="rect7-1-0-8"
       width="24.251938"
       height="1.7106247"
       x="49.646557"
       y="101.12279"
       ry="0" />
    <rect
       style="fill:#b3b3b3;fill-opacity:1;stroke:#000000;stroke-width:0;stroke-dasharray:none;stroke-opacity:1"
       id="rect7-1-0-4-9"
       width="24.000813"
       height="1.7106247"
       x="49.593838"
       y="104.347"
       ry="0" />
    <rect
       style="fill:#b3b3b3;fill-opacity:1;stroke:#000000;stroke-width:0;stroke-dasharray:none;stroke-opacity:1"
       id="rect7-1-0-6-9"
       width="43.714184"
       height="1.7106247"
       x="30.293587"
       y="107.39049"
       ry="0" />
    <rect
       style="fill:#d5f6ff;fill-opacity:1;stroke:#000000;stroke-width:0;stroke-dasharray:none;stroke-opacity:1"
       id="rect8-3"
       width="17.533907"
       height="20.121027"
       x="30.320473"
       y="84.243507" />
    <path
       style="fill:#93a7ac;stroke-width:0.556258"
       d="m 40.768635,103.97682 c -0.0991,-0.29259 -0.509454,-2.78153 -0.552043,-3.34825 l -0.03871,-0.51513 -1.986882,-0.0924 c -2.560515,-0.119097 -4.604335,-0.602367 -6.512343,-1.539847 -0.917686,-0.4509 -1.194142,-0.87425 -0.772318,-1.18269 0.215673,-0.15771 0.367767,-0.13265 0.937892,0.15451 1.790451,0.9018 4.045075,1.44112 6.882451,1.64632 1.54929,0.11204 1.438004,0.21567 1.597703,-1.48786 0.05316,-0.56662 0.131854,-1.17925 0.174959,-1.36138 0.07802,-0.32968 0.07037,-0.33116 -1.740481,-0.3334 -1.000379,-8.6e-4 -1.909179,-0.0594 -2.019561,-0.1294 -0.155837,-0.0987 -0.177704,-0.36959 -0.09781,-1.21196 0.283045,-2.98447 1.342151,-6.13453 2.974951,-8.84836 0.434141,-0.72158 0.572645,-0.84627 0.940034,-0.84627 0.236981,0 0.430873,0.0398 0.430873,0.0883 0,0.0486 -0.356361,0.72745 -0.791914,1.50856 -1.416137,2.53969 -2.36006,5.31773 -2.545368,7.49125 l -0.09097,1.06702 h 1.939509 c 1.468809,0 1.957566,0.0471 2.01391,0.1939 0.04095,0.10665 -0.02736,0.77762 -0.151794,1.49105 -0.124413,0.71343 -0.226202,1.52938 -0.226202,1.81325 v 0.5161 l 0.77268,-0.0911 c 1.255957,-0.14814 3.051002,-0.66286 4.209806,-1.20715 1.217479,-0.57185 1.423458,-0.60827 1.551604,-0.27431 0.130985,0.34136 0.01196,0.46221 -0.915312,0.92936 -1.15323,0.581 -2.963432,1.13137 -4.423148,1.3448 l -1.225823,0.17925 0.100877,0.941977 c 0.05548,0.51809 0.218374,1.43513 0.361979,2.03786 0.143595,0.60275 0.226417,1.13057 0.184034,1.17295 -0.155114,0.15511 -0.922116,0.0716 -0.982598,-0.10693 z M 33.65796,90.885473 c -0.18283,-0.18283 -0.246779,-1.82409 -0.08727,-2.23976 0.115802,-0.30178 0.735759,-0.30178 0.851561,0 0.144869,0.37752 0.102134,1.82311 -0.06305,2.1317 -0.1736,0.32438 -0.443381,0.36596 -0.701274,0.10806 z m 9.629367,-0.19558 c -0.05075,-0.13232 -0.09233,-0.62444 -0.09233,-1.09358 0,-0.90009 0.233196,-1.29484 0.666658,-1.12851 0.185273,0.0711 0.220671,0.3055 0.185841,1.23067 -0.03905,1.03663 -0.07209,1.147 -0.355441,1.18743 -0.184266,0.0263 -0.350279,-0.0541 -0.404731,-0.19601 z"
       id="path5" />
    <path
       style="fill:#ffaaaa;fill-opacity:1;stroke:#000000;stroke-width:0;stroke-dasharray:none;stroke-opacity:1"
       id="path6"
       sodipodi:type="arc"
       sodipodi:cx="52.197239"
       sodipodi:cy="80.522766"
       sodipodi:rx="0.39242324"
       sodipodi:ry="0.4543848"
       sodipodi:start="3.17482"
       sodipodi:end="3.1616747"
       sodipodi:open="true"
       sodipodi:arc-type="arc"
       d="m 51.805032,80.507671 a 0.39242324,0.4543848 0 0 1 0.403955,-0.439086 0.39242324,0.4543848 0 0 1 0.380536,0.466291 0.39242324,0.4543848 0 0 1 -0.401454,0.442151 0.39242324,0.4543848 0 0 1 -0.383174,-0.463385" />
    <rect
       style="fill:#cccccc;fill-opacity:1;stroke:#000000;stroke-width:0;stroke-dasharray:none;stroke-opacity:1"
       id="rect6-4-4"
       width="63.975208"
       height="1.9811051"
       x="20.24922"
       y="114.82265"
       ry="0.93554246" />
    <path
       id="rect6-4-4-3"
       style="fill:#666666;fill-opacity:1;stroke:#000000;stroke-width:0;stroke-dasharray:none;stroke-opacity:1"
       d="m 20.422475,116.33602 c 0.0296,0.26593 0.25315,0.47111 0.5259,0.47111 H 83.54416 c 0.27274,0 0.49586,-0.20518 0.52547,-0.47111 z" />
    <rect
       style="fill:#999999;fill-opacity:1;stroke:#000000;stroke-width:0;stroke-dasharray:none;stroke-opacity:1"
       id="rect6-4-4-8"
       width="15.870305"
       height="1.0361093"
       x="44.754681"
       y="113.99106"
       ry="0.4892846" />
    <rect
       style="fill:#cccccc;fill-opacity:1;stroke:#000000;stroke-width:0;stroke-dasharray:none;stroke-opacity:1"
       id="rect6-5-7"
       width="208.4041"
       height="10.406466"
       x="80.245087"
       y="92.818695"
       ry="0.54601824" />
    <text
       xml:space="preserve"
       style="font-size:6.95894px;font-family:'Droid Sans Fallback';-inkscape-font-specification:'Droid Sans Fallback, Normal';text-align:center;writing-mode:lr-tb;direction:ltr;text-anchor:middle;fill:#000000;stroke-width:4.18194"
       x="184.83333"
       y="100.25932"
       id="text2"><tspan
         sodipodi:role="line"
         id="tspan2"
         style="fill:#000000;stroke-width:4.18194"
         x="185.93935"
         y="100.25932">Máquina usada para acessar a interface web do BookStack </tspan></text>
  </g>
</svg>
