<?xml version="1.0" encoding="UTF-8" standalone="no"?>
<!-- Created with Inkscape (http://www.inkscape.org/) -->

<svg
   width="297mm"
   height="210mm"
   viewBox="0 0 297 210"
   version="1.1"
   id="svg1"
   inkscape:version="1.4 (e7c3feb100, 2024-10-09)"
   sodipodi:docname="1.13.1.3-1 - Estou usando uma máquina Windows para acessar a interface web BookStack.svg"
   inkscape:export-filename="1.13.1.3-1 - Estou usando uma máquina Windows para acessar a interface web BookStack.png"
   inkscape:export-xdpi="96"
   inkscape:export-ydpi="96"
   xmlns:inkscape="http://www.inkscape.org/namespaces/inkscape"
   xmlns:sodipodi="http://sodipodi.sourceforge.net/DTD/sodipodi-0.dtd"
   xmlns="http://www.w3.org/2000/svg"
   xmlns:svg="http://www.w3.org/2000/svg">
  <sodipodi:namedview
     id="namedview1"
     pagecolor="#ffffff"
     bordercolor="#000000"
     borderopacity="0.25"
     inkscape:showpageshadow="2"
     inkscape:pageopacity="0.0"
     inkscape:pagecheckerboard="0"
     inkscape:deskcolor="#d1d1d1"
     inkscape:document-units="mm"
     inkscape:zoom="1.0759173"
     inkscape:cx="364.34026"
     inkscape:cy="326.23324"
     inkscape:window-width="1920"
     inkscape:window-height="1011"
     inkscape:window-x="0"
     inkscape:window-y="0"
     inkscape:window-maximized="1"
     inkscape:current-layer="layer1" />
  <defs
     id="defs1" />
  <g
     inkscape:label="Camada 1"
     inkscape:groupmode="layer"
     id="layer1">
    <rect
       style="fill:#1a1a1a;fill-opacity:1;stroke:#000000;stroke-width:0;stroke-dasharray:none;stroke-opacity:1"
       id="rect6-6"
       width="51.425667"
       height="34.64016"
       x="23.827547"
       y="81.070152"
       ry="1.8175392" />
    <rect
       style="fill:#cccccc;fill-opacity:1;stroke:#000000;stroke-width:0;stroke-dasharray:none;stroke-opacity:1"
       id="rect6-4-2"
       width="63.975208"
       height="1.9811051"
       x="17.556078"
       y="115.54027"
       ry="0.10394686" />
    <rect
       style="fill:#cccccc;fill-opacity:1;stroke:#000000;stroke-width:0;stroke-dasharray:none;stroke-opacity:1"
       id="rect6-5-9"
       width="47.457638"
       height="30.577427"
       x="25.698"
       y="83.052116"
       ry="1.604371" />
    <path
       style="fill:#ffaaaa;fill-opacity:1;stroke:#000000;stroke-width:0;stroke-dasharray:none;stroke-opacity:1"
       id="path6-7"
       sodipodi:type="arc"
       sodipodi:cx="49.511932"
       sodipodi:cy="82.085808"
       sodipodi:rx="0.39242324"
       sodipodi:ry="0.4543848"
       sodipodi:start="3.17482"
       sodipodi:end="3.1616747"
       sodipodi:open="true"
       sodipodi:arc-type="arc"
       d="m 49.119726,82.070713 a 0.39242324,0.4543848 0 0 1 0.403954,-0.439086 0.39242324,0.4543848 0 0 1 0.380536,0.466291 0.39242324,0.4543848 0 0 1 -0.401453,0.442151 0.39242324,0.4543848 0 0 1 -0.383175,-0.463386" />
    <rect
       style="fill:#cccccc;fill-opacity:1;stroke:#000000;stroke-width:0;stroke-dasharray:none;stroke-opacity:1"
       id="rect6-4-4-0"
       width="63.975208"
       height="1.9811051"
       x="17.563921"
       y="116.3857"
       ry="0.93554246" />
    <path
       id="rect6-4-4-3-9"
       style="fill:#666666;fill-opacity:1;stroke:#000000;stroke-width:0;stroke-dasharray:none;stroke-opacity:1"
       d="m 17.737171,117.89907 c 0.0296,0.26593 0.25315,0.47111 0.5259,0.47111 h 62.595785 c 0.27274,0 0.49586,-0.20518 0.52547,-0.47111 z" />
    <rect
       style="fill:#999999;fill-opacity:1;stroke:#000000;stroke-width:0;stroke-dasharray:none;stroke-opacity:1"
       id="rect6-4-4-8-3"
       width="15.870305"
       height="1.0361093"
       x="42.069378"
       y="115.55411"
       ry="0.4892846" />
    <rect
       style="fill:#b3b3b3;fill-opacity:1;stroke:#000000;stroke-width:0;stroke-dasharray:none;stroke-opacity:1"
       id="rect7-6"
       width="24.162579"
       height="2.3521092"
       x="46.712563"
       y="94.35334"
       ry="0" />
    <rect
       style="fill:#b3b3b3;fill-opacity:1;stroke:#000000;stroke-width:0;stroke-dasharray:none;stroke-opacity:1"
       id="rect7-1-06"
       width="24.162579"
       height="2.3521092"
       x="46.800743"
       y="97.891937"
       ry="0" />
    <rect
       style="fill:#4d4d4d;fill-opacity:1;stroke:#000000;stroke-width:0;stroke-dasharray:none;stroke-opacity:1"
       id="rect7-1-0-2"
       width="24.251938"
       height="1.7106247"
       x="46.79015"
       y="102.14621"
       ry="0" />
    <rect
       style="fill:#b3b3b3;fill-opacity:1;stroke:#000000;stroke-width:0;stroke-dasharray:none;stroke-opacity:1"
       id="rect7-1-0-4-6"
       width="24.283381"
       height="1.7106247"
       x="46.846111"
       y="105.92133"
       ry="0" />
    <rect
       style="fill:#b3b3b3;fill-opacity:1;stroke:#000000;stroke-width:0;stroke-dasharray:none;stroke-opacity:1"
       id="rect7-1-0-6-1"
       width="43.714184"
       height="1.7106247"
       x="27.45892"
       y="108.87788"
       ry="0" />
    <rect
       style="fill:#cccccc;fill-opacity:1;stroke:#000000;stroke-width:0;stroke-dasharray:none;stroke-opacity:1"
       id="rect6-5-7-2"
       width="208.4041"
       height="10.406466"
       x="77.559784"
       y="94.381737"
       ry="0.54601824" />
    <text
       xml:space="preserve"
       style="font-size:6.95894px;font-family:'Droid Sans Fallback';-inkscape-font-specification:'Droid Sans Fallback, Normal';text-align:center;writing-mode:lr-tb;direction:ltr;text-anchor:middle;fill:#000000;stroke-width:4.18194"
       x="182.14801"
       y="101.82236"
       id="text2-0"><tspan
         sodipodi:role="line"
         id="tspan2-2"
         style="fill:#000000;stroke-width:4.18194"
         x="183.25403"
         y="101.82236">Máquina usada para acessar a interface web do BookStack </tspan></text>
    <path
       style="fill:#000000;stroke-width:0.207523"
       d="m 42.745154,107.87497 c -0.362385,-0.0543 -0.955379,-0.12633 -1.317764,-0.16008 -1.180818,-0.10999 -4.850697,-0.64013 -4.939079,-0.71347 -0.07476,-0.0621 -0.08489,-0.44243 -0.08489,-3.19154 0,-3.02948 0.0028,-3.12271 0.106205,-3.17788 0.06998,-0.0374 1.294303,-0.0568 3.59249,-0.0568 3.096144,0 3.495947,0.01 3.572576,0.0863 0.07664,0.0766 0.0863,0.48074 0.0863,3.61995 0,3.13921 -0.0097,3.54329 -0.0863,3.61995 -0.100652,0.10065 -0.0772,0.10132 -0.929507,-0.0264 z m -9.938185,-1.26422 c -1.177751,-0.14786 -2.572077,-0.3193 -3.098498,-0.38097 -0.52642,-0.0616 -0.989701,-0.13915 -1.029512,-0.17219 -0.05806,-0.0482 -0.07242,-0.5846 -0.07242,-2.71441 0,-2.56807 0.0038,-2.65618 0.106205,-2.71118 0.06979,-0.0373 1.233734,-0.0568 3.397518,-0.0568 2.71119,0 3.302251,0.0131 3.353402,0.0749 0.04493,0.0541 0.05816,0.92281 0.04793,3.14343 l -0.01416,3.06861 -0.274537,0.008 c -0.150997,0.005 -1.238152,-0.1122 -2.415912,-0.26006 z m -4.090573,-6.899223 c -0.04531,-0.0173 -0.10052,-0.0585 -0.122705,-0.0917 -0.02214,-0.0332 -0.04071,-1.19843 -0.04118,-2.58936 -6.19e-4,-1.93879 0.0152,-2.55034 0.06782,-2.62057 0.05309,-0.0709 0.292295,-0.11765 1.056969,-0.20665 0.543577,-0.0632 2.038424,-0.24648 3.321874,-0.40715 1.558991,-0.19516 2.365445,-0.27521 2.429645,-0.24118 0.08977,0.0476 0.09608,0.25074 0.09608,3.07028 v 3.01931 l -0.140847,0.0536 c -0.149609,0.0568 -6.519786,0.0698 -6.667631,0.0135 z m 7.810534,-0.0159 -0.12354,-0.0503 v -3.06806 c 0,-2.85374 0.0066,-3.07386 0.09608,-3.15103 0.09534,-0.0824 3.566751,-0.58083 4.90669,-0.70462 0.32052,-0.0296 0.93672,-0.10307 1.369336,-0.16325 0.432617,-0.0601 0.792497,-0.10941 0.799729,-0.10941 0.0075,0 0.05197,0.0388 0.09943,0.0863 0.07664,0.0766 0.08621,0.47412 0.08546,3.55523 -4.13e-4,2.08948 -0.02157,3.50171 -0.05291,3.55131 -0.04521,0.0716 -0.508954,0.0838 -3.554396,0.0932 -2.021568,0.007 -3.554575,-0.0104 -3.625885,-0.0394 z"
       id="path7" />
    <text
       xml:space="preserve"
       style="font-size:7.25551px;font-family:sans-serif;-inkscape-font-specification:'sans-serif, Normal';text-align:start;writing-mode:lr-tb;direction:ltr;text-anchor:start;fill:#000000;stroke-width:0.108832"
       x="30.796867"
       y="90.582092"
       id="text16-8-6-9-4"><tspan
         sodipodi:role="line"
         id="tspan16-0-0-0-6"
         style="font-style:normal;font-variant:normal;font-weight:bold;font-stretch:normal;font-size:7.25551px;font-family:'Noto Sans Adlam';-inkscape-font-specification:'Noto Sans Adlam, Bold';font-variant-ligatures:normal;font-variant-caps:normal;font-variant-numeric:normal;font-variant-east-asian:normal;fill:#000000;stroke-width:0.108832"
         x="30.796867"
         y="90.582092">Windows</tspan></text>
  </g>
</svg>
