<?xml version="1.0" encoding="UTF-8" standalone="no"?>
<!-- Created with Inkscape (http://www.inkscape.org/) -->

<svg
   width="210mm"
   height="297mm"
   viewBox="0 0 210 297"
   version="1.1"
   id="svg1"
   inkscape:version="1.4 (e7c3feb100, 2024-10-09)"
   sodipodi:docname="2.0 – Instalação resumida - somente os comandos.svg"
   inkscape:export-filename="2.0 – Instalação resumida - somente os comandos.png"
   inkscape:export-xdpi="96"
   inkscape:export-ydpi="96"
   xmlns:inkscape="http://www.inkscape.org/namespaces/inkscape"
   xmlns:sodipodi="http://sodipodi.sourceforge.net/DTD/sodipodi-0.dtd"
   xmlns="http://www.w3.org/2000/svg"
   xmlns:svg="http://www.w3.org/2000/svg">
  <sodipodi:namedview
     id="namedview1"
     pagecolor="#ffffff"
     bordercolor="#000000"
     borderopacity="0.25"
     inkscape:showpageshadow="2"
     inkscape:pageopacity="0.0"
     inkscape:pagecheckerboard="0"
     inkscape:deskcolor="#d1d1d1"
     inkscape:document-units="mm"
     inkscape:zoom="0.73228114"
     inkscape:cx="397.38836"
     inkscape:cy="561.25984"
     inkscape:window-width="1920"
     inkscape:window-height="1043"
     inkscape:window-x="0"
     inkscape:window-y="0"
     inkscape:window-maximized="1"
     inkscape:current-layer="layer1" />
  <defs
     id="defs1" />
  <g
     inkscape:label="Camada 1"
     inkscape:groupmode="layer"
     id="layer1">
    <rect
       style="fill:#217867;fill-opacity:0.92;stroke:#ff0000;stroke-width:0"
       id="rect2-28-9-3-0"
       width="203.90434"
       height="23.28244"
       x="3.4395826"
       y="72.449539"
       ry="0" />
    <rect
       style="fill:#4d4d4d;stroke:#030000;stroke-width:0;stroke-dasharray:none;stroke-opacity:1"
       id="rect3-04"
       width="26.847486"
       height="17.97823"
       x="153.66524"
       y="58.737499"
       ry="1.8266649" />
    <path
       style="fill:#ff0000;stroke:#030000;stroke-width:0;stroke-dasharray:none;stroke-opacity:1"
       id="path5-3-0-9"
       sodipodi:type="arc"
       sodipodi:cx="167.06792"
       sodipodi:cy="59.057507"
       sodipodi:rx="0.1900247"
       sodipodi:ry="0.18769929"
       sodipodi:start="3.1149604"
       sodipodi:end="3.1146547"
       sodipodi:arc-type="slice"
       d="m 166.87796,59.062505 a 0.1900247,0.18769929 0 0 1 0.18488,-0.192631 0.1900247,0.18769929 0 0 1 0.19503,0.182606 0.1900247,0.18769929 0 0 1 -0.18485,0.192658 0.1900247,0.18769929 0 0 1 -0.19506,-0.182576 l 0.18996,-0.0051 z" />
    <rect
       style="fill:#cccccc;stroke:#030000;stroke-width:0;stroke-dasharray:none;stroke-opacity:1"
       id="rect3-3-8"
       width="25.616978"
       height="16.460068"
       x="154.28844"
       y="59.356274"
       ry="1.6724131" />
    <path
       id="rect3-3-8-8"
       style="fill:#550022;stroke:#030000;stroke-width:0;stroke-dasharray:none;stroke-opacity:1"
       d="m 156.44338,60.65569 c -0.73291,0 -1.28754,0.12699 -1.28985,0.8599 l -0.0331,10.48411 v 0.35347 1.88515 h 24.06262 V 72.35317 71.9997 l 0.0661,-10.68255 c 0.005,-0.73289 -0.65616,-0.66146 -1.38907,-0.66146 z"
       sodipodi:nodetypes="ssccccccsss" />
    <path
       id="rect3-3-8-8-7"
       style="fill:#aa0044;stroke:#030000;stroke-width:0;stroke-dasharray:none;stroke-opacity:1"
       d="m 156.47648,60.65583 c -0.32073,0 -0.56309,0.0182 -0.73449,0.065 -0.22028,0.0601 -0.32195,0.15742 -0.35899,0.19164 -0.13822,0.12768 -0.235,0.31637 -0.22947,0.6477 v 0.0282 0.15029 l 24.09624,-0.0132 10e-4,-0.17661 0.001,-0.24743 -0.005,-0.0622 -0.004,-0.0841 -0.0231,-0.0807 -0.0305,-0.0994 -0.0453,-0.0677 -0.0486,-0.0586 -0.0751,-0.0568 -0.0551,-0.0264 c -0.0193,-0.009 -0.076,-0.0449 -0.17542,-0.0637 -0.0379,-0.007 -0.0845,-0.019 -0.1354,-0.0263 -0.0627,-0.009 -0.13408,-0.0113 -0.22547,-0.0156 -0.14207,-0.007 -0.32509,-0.004 -0.53706,-0.004 z"
       sodipodi:nodetypes="ssscccccccccccccssssss" />
    <rect
       style="fill:#cccccc;stroke:#030000;stroke-width:0;stroke-dasharray:none;stroke-opacity:1"
       id="rect3-3-8-3"
       width="26.926598"
       height="7.4564257"
       x="152.92278"
       y="82.810928"
       ry="0.75760466" />
    <rect
       style="fill:#cccccc;fill-opacity:1;stroke:#030000;stroke-width:0;stroke-dasharray:none;stroke-opacity:1"
       id="rect3-3-8-9"
       width="25.616978"
       height="6.2637353"
       x="153.70552"
       y="83.550552"
       ry="0.63642222" />
    <rect
       style="fill:#666666;stroke:#030000;stroke-width:0;stroke-dasharray:none;stroke-opacity:1"
       id="rect3-3-8-9-5"
       width="25.616978"
       height="6.2637353"
       x="153.56059"
       y="83.509232"
       ry="0.63642222" />
    <rect
       style="fill:#f9f9f9;stroke:#787171;stroke-width:0;stroke-dasharray:none;stroke-opacity:1"
       id="rect50-38"
       width="0.85135758"
       height="0.69095689"
       x="155.63243"
       y="85.122879"
       ry="0.083944216" />
    <rect
       style="fill:#f9f9f9;stroke:#787171;stroke-width:0;stroke-dasharray:none;stroke-opacity:1"
       id="rect50-15-0"
       width="0.85135758"
       height="0.69095689"
       x="157.23473"
       y="85.12825"
       ry="0.083944216" />
    <rect
       style="fill:#f9f9f9;stroke:#787171;stroke-width:0;stroke-dasharray:none;stroke-opacity:1"
       id="rect50-9-9"
       width="0.85135758"
       height="0.69095689"
       x="158.84499"
       y="85.129288"
       ry="0.083944216" />
    <rect
       style="fill:#f9f9f9;stroke:#787171;stroke-width:0;stroke-dasharray:none;stroke-opacity:1"
       id="rect50-3-7"
       width="0.85135758"
       height="0.69095689"
       x="160.45311"
       y="85.125137"
       ry="0.083944216" />
    <rect
       style="fill:#f9f9f9;stroke:#787171;stroke-width:0;stroke-dasharray:none;stroke-opacity:1"
       id="rect50-7-9"
       width="0.85135758"
       height="0.69095689"
       x="162.06129"
       y="85.12825"
       ry="0.083944216" />
    <rect
       style="fill:#f9f9f9;stroke:#787171;stroke-width:0;stroke-dasharray:none;stroke-opacity:1"
       id="rect50-34-9"
       width="0.85135758"
       height="0.69095689"
       x="163.6664"
       y="85.126114"
       ry="0.083944216" />
    <rect
       style="fill:#f9f9f9;stroke:#787171;stroke-width:0;stroke-dasharray:none;stroke-opacity:1"
       id="rect50-2-3"
       width="0.85135758"
       height="0.69095689"
       x="165.27458"
       y="85.126175"
       ry="0.083944216" />
    <rect
       style="fill:#f9f9f9;stroke:#787171;stroke-width:0;stroke-dasharray:none;stroke-opacity:1"
       id="rect50-73-2"
       width="0.85135758"
       height="0.69095689"
       x="166.8817"
       y="85.131363"
       ry="0.083944216" />
    <rect
       style="fill:#f9f9f9;stroke:#787171;stroke-width:0;stroke-dasharray:none;stroke-opacity:1"
       id="rect50-4-4"
       width="0.85135758"
       height="0.69095689"
       x="168.49193"
       y="85.129288"
       ry="0.083944216" />
    <rect
       style="fill:#f9f9f9;stroke:#787171;stroke-width:0;stroke-dasharray:none;stroke-opacity:1"
       id="rect50-74-3"
       width="0.85135758"
       height="0.69095689"
       x="170.10011"
       y="85.126114"
       ry="0.083944216" />
    <rect
       style="fill:#f9f9f9;stroke:#787171;stroke-width:0;stroke-dasharray:none;stroke-opacity:1"
       id="rect50-46-7"
       width="0.85135758"
       height="0.69095689"
       x="171.71248"
       y="85.131668"
       ry="0.083944216" />
    <rect
       style="fill:#f9f9f9;stroke:#787171;stroke-width:0;stroke-dasharray:none;stroke-opacity:1"
       id="rect50-6-1"
       width="0.85135758"
       height="0.69095689"
       x="173.32677"
       y="85.128311"
       ry="0.083944216" />
    <rect
       style="fill:#ffe680;stroke:#787171;stroke-width:0;stroke-dasharray:none;stroke-opacity:1"
       id="rect50-26-2"
       width="0.85135758"
       height="0.69095689"
       x="174.94319"
       y="85.130325"
       ry="0.083944216" />
    <path
       id="path3-6-7"
       style="fill:#333333;stroke:#030000;stroke-width:0;stroke-dasharray:none;stroke-opacity:1"
       d="m 166.08714,76.70484 c -0.14316,-8e-5 -0.26255,0.0976 -0.29616,0.23005 l -0.81932,1.71541 -0.75588,1.12639 -3.95477,-9e-5 c -0.25818,0 -0.47145,0.1837 -0.51807,0.42797 h -0.007 v 0.0645 c -6.1e-4,0.0118 -0.004,0.0232 -0.004,0.0353 -1e-5,0.0122 0.002,0.0237 0.004,0.0358 v 0.56373 h 14.66221 v -0.41139 c 0.0223,-0.0584 0.0358,-0.12128 0.0359,-0.18772 3.1e-4,-0.29234 -0.23487,-0.52768 -0.52719,-0.52769 l -4.03373,-8e-5 -0.68978,-1.11443 -0.70198,-1.63896 c 1.5e-4,-0.004 6e-4,-0.008 6e-4,-0.012 3.3e-4,-0.16916 -0.13564,-0.30545 -0.3048,-0.30554 z" />
    <path
       style="fill:#00ff00;stroke:#030000;stroke-width:0;stroke-dasharray:none;stroke-opacity:1"
       id="path5-3-0"
       sodipodi:type="arc"
       sodipodi:cx="156.9507"
       sodipodi:cy="76.235184"
       sodipodi:rx="0.25617054"
       sodipodi:ry="0.25303566"
       sodipodi:start="3.1149604"
       sodipodi:end="3.1146547"
       sodipodi:arc-type="slice"
       d="m 156.69462,76.241922 a 0.25617054,0.25303566 0 0 1 0.24924,-0.259684 0.25617054,0.25303566 0 0 1 0.26292,0.246169 0.25617054,0.25303566 0 0 1 -0.2492,0.259721 0.25617054,0.25303566 0 0 1 -0.26296,-0.246129 l 0.25608,-0.0068 z" />
    <path
       style="fill:#b3b3b3;stroke:#030000;stroke-width:0;stroke-dasharray:none;stroke-opacity:1"
       id="path5-0-8"
       sodipodi:type="arc"
       sodipodi:cx="157.65654"
       sodipodi:cy="76.23732"
       sodipodi:rx="0.25617054"
       sodipodi:ry="0.25303566"
       sodipodi:start="3.1149604"
       sodipodi:end="3.1146547"
       sodipodi:arc-type="slice"
       d="m 157.40046,76.244058 a 0.25617054,0.25303566 0 0 1 0.24924,-0.259683 0.25617054,0.25303566 0 0 1 0.26292,0.246168 0.25617054,0.25303566 0 0 1 -0.2492,0.259721 0.25617054,0.25303566 0 0 1 -0.26296,-0.246129 l 0.25608,-0.0068 z" />
    <path
       style="fill:#b3b3b3;stroke:#030000;stroke-width:0;stroke-dasharray:none;stroke-opacity:1"
       id="path5-0-8-3"
       sodipodi:type="arc"
       sodipodi:cx="178.15276"
       sodipodi:cy="61.177441"
       sodipodi:rx="0.36080384"
       sodipodi:ry="0.35638854"
       sodipodi:start="3.1149604"
       sodipodi:end="3.1146547"
       sodipodi:arc-type="slice"
       d="m 177.79208,61.186931 a 0.36080384,0.35638854 0 0 1 0.35104,-0.365752 0.36080384,0.35638854 0 0 1 0.37031,0.346717 0.36080384,0.35638854 0 0 1 -0.35098,0.365805 0.36080384,0.35638854 0 0 1 -0.37037,-0.346661 l 0.36068,-0.0096 z" />
    <path
       style="fill:#b3b3b3;stroke:#030000;stroke-width:0;stroke-dasharray:none;stroke-opacity:1"
       id="path5-0-8-3-0"
       sodipodi:type="arc"
       sodipodi:cx="177.00346"
       sodipodi:cy="61.177441"
       sodipodi:rx="0.36080384"
       sodipodi:ry="0.35638854"
       sodipodi:start="3.1149604"
       sodipodi:end="3.1146547"
       sodipodi:arc-type="slice"
       d="m 176.64279,61.186931 a 0.36080384,0.35638854 0 0 1 0.35104,-0.365752 0.36080384,0.35638854 0 0 1 0.37031,0.346717 0.36080384,0.35638854 0 0 1 -0.35099,0.365805 0.36080384,0.35638854 0 0 1 -0.37036,-0.346661 l 0.36067,-0.0096 z" />
    <path
       style="fill:#b3b3b3;stroke:#030000;stroke-width:0;stroke-dasharray:none;stroke-opacity:1"
       id="path5-0-8-3-3"
       sodipodi:type="arc"
       sodipodi:cx="175.77974"
       sodipodi:cy="61.185741"
       sodipodi:rx="0.36080384"
       sodipodi:ry="0.35638854"
       sodipodi:start="3.1149604"
       sodipodi:end="3.1146547"
       sodipodi:arc-type="slice"
       d="m 175.41906,61.195232 a 0.36080384,0.35638854 0 0 1 0.35104,-0.365752 0.36080384,0.35638854 0 0 1 0.37031,0.346717 0.36080384,0.35638854 0 0 1 -0.35098,0.365804 0.36080384,0.35638854 0 0 1 -0.37036,-0.34666 l 0.36067,-0.0096 z" />
    <path
       style="fill:#b3b3b3;stroke:#030000;stroke-width:0;stroke-dasharray:none;stroke-opacity:1"
       id="path5-4-6"
       sodipodi:type="arc"
       sodipodi:cx="158.38802"
       sodipodi:cy="76.231766"
       sodipodi:rx="0.25617054"
       sodipodi:ry="0.25303566"
       sodipodi:start="3.1149604"
       sodipodi:end="3.1146547"
       sodipodi:arc-type="slice"
       d="m 158.13194,76.238504 a 0.25617054,0.25303566 0 0 1 0.24923,-0.259684 0.25617054,0.25303566 0 0 1 0.26292,0.246169 0.25617054,0.25303566 0 0 1 -0.24919,0.259721 0.25617054,0.25303566 0 0 1 -0.26296,-0.246129 l 0.25608,-0.0068 z" />
    <rect
       style="fill:#f9f9f9;stroke:#787171;stroke-width:0;stroke-dasharray:none;stroke-opacity:1"
       id="rect50"
       width="0.85135758"
       height="0.69095689"
       x="154.3708"
       y="84.082779"
       ry="0.083944216" />
    <rect
       style="fill:#f9f9f9;stroke:#787171;stroke-width:0;stroke-dasharray:none;stroke-opacity:1"
       id="rect50-75"
       width="1.0969114"
       height="0.69095689"
       x="154.35558"
       y="86.164444"
       ry="0.083944216" />
    <rect
       style="fill:#f9f9f9;stroke:#787171;stroke-width:0;stroke-dasharray:none;stroke-opacity:1"
       id="rect50-17"
       width="0.85135758"
       height="0.69095689"
       x="155.99443"
       y="86.164505"
       ry="0.083944216" />
    <rect
       style="fill:#f9f9f9;stroke:#787171;stroke-width:0;stroke-dasharray:none;stroke-opacity:1"
       id="rect50-15-1"
       width="0.85135758"
       height="0.69095689"
       x="157.59673"
       y="86.169876"
       ry="0.083944216" />
    <rect
       style="fill:#f9f9f9;stroke:#787171;stroke-width:0;stroke-dasharray:none;stroke-opacity:1"
       id="rect50-9-1"
       width="0.85135758"
       height="0.69095689"
       x="159.20699"
       y="86.170914"
       ry="0.083944216" />
    <rect
       style="fill:#f9f9f9;stroke:#787171;stroke-width:0;stroke-dasharray:none;stroke-opacity:1"
       id="rect50-3-1"
       width="0.85135758"
       height="0.69095689"
       x="160.81511"
       y="86.166763"
       ry="0.083944216" />
    <rect
       style="fill:#f9f9f9;stroke:#787171;stroke-width:0;stroke-dasharray:none;stroke-opacity:1"
       id="rect50-7-7"
       width="0.85135758"
       height="0.69095689"
       x="162.42329"
       y="86.169876"
       ry="0.083944216" />
    <rect
       style="fill:#f9f9f9;stroke:#787171;stroke-width:0;stroke-dasharray:none;stroke-opacity:1"
       id="rect50-34-0"
       width="0.85135758"
       height="0.69095689"
       x="164.0284"
       y="86.16774"
       ry="0.083944216" />
    <rect
       style="fill:#f9f9f9;stroke:#787171;stroke-width:0;stroke-dasharray:none;stroke-opacity:1"
       id="rect50-2-4"
       width="0.85135758"
       height="0.69095689"
       x="165.63658"
       y="86.167801"
       ry="0.083944216" />
    <rect
       style="fill:#f9f9f9;stroke:#787171;stroke-width:0;stroke-dasharray:none;stroke-opacity:1"
       id="rect50-73-0"
       width="0.85135758"
       height="0.69095689"
       x="167.2437"
       y="86.172989"
       ry="0.083944216" />
    <rect
       style="fill:#f9f9f9;stroke:#787171;stroke-width:0;stroke-dasharray:none;stroke-opacity:1"
       id="rect50-4-8"
       width="0.85135758"
       height="0.69095689"
       x="168.85393"
       y="86.170914"
       ry="0.083944216" />
    <rect
       style="fill:#f9f9f9;stroke:#787171;stroke-width:0;stroke-dasharray:none;stroke-opacity:1"
       id="rect50-74-5"
       width="0.85135758"
       height="0.69095689"
       x="170.46211"
       y="86.16774"
       ry="0.083944216" />
    <rect
       style="fill:#f9f9f9;stroke:#787171;stroke-width:0;stroke-dasharray:none;stroke-opacity:1"
       id="rect50-46-1"
       width="0.85135758"
       height="0.69095689"
       x="172.07448"
       y="86.173294"
       ry="0.083944216" />
    <rect
       style="fill:#f9f9f9;stroke:#787171;stroke-width:0;stroke-dasharray:none;stroke-opacity:1"
       id="rect50-6-6"
       width="0.85135758"
       height="0.69095689"
       x="173.68877"
       y="86.169937"
       ry="0.083944216" />
    <rect
       style="fill:#f9f9f9;stroke:#787171;stroke-width:0;stroke-dasharray:none;stroke-opacity:1"
       id="rect50-15"
       width="0.85135758"
       height="0.69095689"
       x="155.9731"
       y="84.08815"
       ry="0.083944216" />
    <rect
       style="fill:#f9f9f9;stroke:#787171;stroke-width:0;stroke-dasharray:none;stroke-opacity:1"
       id="rect50-9"
       width="0.85135758"
       height="0.69095689"
       x="157.58336"
       y="84.089188"
       ry="0.083944216" />
    <rect
       style="fill:#f9f9f9;stroke:#787171;stroke-width:0;stroke-dasharray:none;stroke-opacity:1"
       id="rect50-3"
       width="0.85135758"
       height="0.69095689"
       x="159.19148"
       y="84.085037"
       ry="0.083944216" />
    <rect
       style="fill:#f9f9f9;stroke:#787171;stroke-width:0;stroke-dasharray:none;stroke-opacity:1"
       id="rect50-8"
       width="0.64088285"
       height="0.69095689"
       x="154.37343"
       y="85.117569"
       ry="0.083944216" />
    <rect
       style="fill:#f9f9f9;stroke:#787171;stroke-width:0;stroke-dasharray:none;stroke-opacity:1"
       id="rect50-38-4"
       width="0.85135758"
       height="0.69095689"
       x="155.57695"
       y="87.222427"
       ry="0.083944216" />
    <rect
       style="fill:#f9f9f9;stroke:#787171;stroke-width:0;stroke-dasharray:none;stroke-opacity:1"
       id="rect50-15-0-8"
       width="0.85135758"
       height="0.69095689"
       x="157.17924"
       y="87.227798"
       ry="0.083944216" />
    <rect
       style="fill:#f9f9f9;stroke:#787171;stroke-width:0;stroke-dasharray:none;stroke-opacity:1"
       id="rect50-9-9-0"
       width="0.85135758"
       height="0.69095689"
       x="158.78951"
       y="87.228836"
       ry="0.083944216" />
    <rect
       style="fill:#f9f9f9;stroke:#787171;stroke-width:0;stroke-dasharray:none;stroke-opacity:1"
       id="rect50-3-7-8"
       width="0.85135758"
       height="0.69095689"
       x="160.39763"
       y="87.224686"
       ry="0.083944216" />
    <rect
       style="fill:#f9f9f9;stroke:#787171;stroke-width:0;stroke-dasharray:none;stroke-opacity:1"
       id="rect50-7-9-1"
       width="0.85135758"
       height="0.69095689"
       x="162.00581"
       y="87.227798"
       ry="0.083944216" />
    <rect
       style="fill:#f9f9f9;stroke:#787171;stroke-width:0;stroke-dasharray:none;stroke-opacity:1"
       id="rect50-34-9-0"
       width="0.85135758"
       height="0.69095689"
       x="163.61092"
       y="87.225662"
       ry="0.083944216" />
    <rect
       style="fill:#f9f9f9;stroke:#787171;stroke-width:0;stroke-dasharray:none;stroke-opacity:1"
       id="rect50-2-3-2"
       width="0.85135758"
       height="0.69095689"
       x="165.2191"
       y="87.225723"
       ry="0.083944216" />
    <rect
       style="fill:#f9f9f9;stroke:#787171;stroke-width:0;stroke-dasharray:none;stroke-opacity:1"
       id="rect50-73-2-2"
       width="0.85135758"
       height="0.69095689"
       x="166.82622"
       y="87.230911"
       ry="0.083944216" />
    <rect
       style="fill:#f9f9f9;stroke:#787171;stroke-width:0;stroke-dasharray:none;stroke-opacity:1"
       id="rect50-4-4-9"
       width="0.85135758"
       height="0.69095689"
       x="168.43645"
       y="87.228836"
       ry="0.083944216" />
    <rect
       style="fill:#f9f9f9;stroke:#787171;stroke-width:0;stroke-dasharray:none;stroke-opacity:1"
       id="rect50-74-3-7"
       width="0.85135758"
       height="0.69095689"
       x="170.04463"
       y="87.225662"
       ry="0.083944216" />
    <rect
       style="fill:#f9f9f9;stroke:#787171;stroke-width:0;stroke-dasharray:none;stroke-opacity:1"
       id="rect50-46-7-5"
       width="0.85135758"
       height="0.69095689"
       x="171.657"
       y="87.231216"
       ry="0.083944216" />
    <rect
       style="fill:#f9f9f9;stroke:#787171;stroke-width:0;stroke-dasharray:none;stroke-opacity:1"
       id="rect50-8-6"
       width="0.64088285"
       height="0.69095689"
       x="154.35103"
       y="87.212967"
       ry="0.083944216" />
    <rect
       style="fill:#f9f9f9;stroke:#787171;stroke-width:0;stroke-dasharray:none;stroke-opacity:1"
       id="rect50-7"
       width="0.85135758"
       height="0.69095689"
       x="160.79967"
       y="84.08815"
       ry="0.083944216" />
    <rect
       style="fill:#f9f9f9;stroke:#787171;stroke-width:0;stroke-dasharray:none;stroke-opacity:1"
       id="rect50-34"
       width="0.85135758"
       height="0.69095689"
       x="162.40477"
       y="84.086014"
       ry="0.083944216" />
    <rect
       style="fill:#f9f9f9;stroke:#787171;stroke-width:0;stroke-dasharray:none;stroke-opacity:1"
       id="rect50-2"
       width="0.85135758"
       height="0.69095689"
       x="164.01295"
       y="84.086075"
       ry="0.083944216" />
    <rect
       style="fill:#f9f9f9;stroke:#787171;stroke-width:0;stroke-dasharray:none;stroke-opacity:1"
       id="rect50-73"
       width="0.85135758"
       height="0.69095689"
       x="165.62007"
       y="84.091263"
       ry="0.083944216" />
    <rect
       style="fill:#f9f9f9;stroke:#787171;stroke-width:0;stroke-dasharray:none;stroke-opacity:1"
       id="rect50-4"
       width="0.85135758"
       height="0.69095689"
       x="167.2303"
       y="84.089188"
       ry="0.083944216" />
    <rect
       style="fill:#f9f9f9;stroke:#787171;stroke-width:0;stroke-dasharray:none;stroke-opacity:1"
       id="rect50-74"
       width="0.85135758"
       height="0.69095689"
       x="168.83849"
       y="84.086014"
       ry="0.083944216" />
    <rect
       style="fill:#f9f9f9;stroke:#787171;stroke-width:0;stroke-dasharray:none;stroke-opacity:1"
       id="rect50-46"
       width="0.85135758"
       height="0.69095689"
       x="170.45085"
       y="84.091568"
       ry="0.083944216" />
    <path
       id="rect50-1"
       style="fill:#ffffff;stroke:#787171;stroke-width:0;stroke-dasharray:none;stroke-opacity:1"
       d="m 179.32312,82.35152 c -0.70474,0 -1.27995,0.53509 -1.34359,1.22267 l -4.29018,3.59254 c -0.0248,0.0208 -0.0473,0.0431 -0.0687,0.0661 l -0.34519,-0.33073 c -0.2996,-0.28704 -0.58343,0.66461 -0.58343,1.07952 v 1.82211 c 0,0.41491 0.33388,0.74931 0.74879,0.74931 h 6.53035 c 0.41491,0 0.74879,-0.3344 0.74879,-0.74931 V 88.0488 c 0.31621,-0.24654 0.51935,-0.63019 0.51935,-1.06402 v -3.28404 c 0,-0.74759 -0.60167,-1.34927 -1.34927,-1.34927 z"
       sodipodi:nodetypes="scccsssssscssss" />
    <rect
       style="fill:#f9f9f9;stroke:#787171;stroke-width:0;stroke-dasharray:none;stroke-opacity:1"
       id="rect50-6"
       width="0.85135758"
       height="0.69095689"
       x="172.06514"
       y="84.088211"
       ry="0.083944216" />
    <rect
       style="fill:#f9f9f9;stroke:#787171;stroke-width:0;stroke-dasharray:none;stroke-opacity:1"
       id="rect50-26"
       width="0.85135758"
       height="0.69095689"
       x="173.68156"
       y="84.090225"
       ry="0.083944216" />
    <rect
       style="fill:#f9f9f9;stroke:#787171;stroke-width:0;stroke-dasharray:none;stroke-opacity:1"
       id="rect50-05"
       width="0.85135758"
       height="0.69095689"
       x="175.29173"
       y="84.087479"
       ry="0.083944216" />
    <rect
       style="fill:#f9f9f9;stroke:#787171;stroke-width:0;stroke-dasharray:none;stroke-opacity:1"
       id="rect50-38-7"
       width="0.85135758"
       height="0.69095689"
       x="154.34898"
       y="88.266373"
       ry="0.083944216" />
    <rect
       style="fill:#f9f9f9;stroke:#787171;stroke-width:0;stroke-dasharray:none;stroke-opacity:1"
       id="rect50-15-0-4"
       width="0.85135758"
       height="0.69095689"
       x="155.95128"
       y="88.271744"
       ry="0.083944216" />
    <rect
       style="fill:#f9f9f9;stroke:#787171;stroke-width:0;stroke-dasharray:none;stroke-opacity:1"
       id="rect50-9-9-9"
       width="0.85135758"
       height="0.69095689"
       x="157.56154"
       y="88.272781"
       ry="0.083944216" />
    <rect
       style="fill:#f9f9f9;stroke:#787171;stroke-width:0;stroke-dasharray:none;stroke-opacity:1"
       id="rect50-3-7-1"
       width="0.85135758"
       height="0.69095689"
       x="159.16966"
       y="88.268631"
       ry="0.083944216" />
    <rect
       style="fill:#f9f9f9;stroke:#787171;stroke-width:0;stroke-dasharray:none;stroke-opacity:1"
       id="rect50-7-9-7"
       width="0.85135758"
       height="0.69095689"
       x="160.77785"
       y="88.271744"
       ry="0.083944216" />
    <rect
       style="fill:#ffe680;stroke:#787171;stroke-width:0;stroke-dasharray:none;stroke-opacity:1"
       id="rect50-6-1-4"
       width="10.392879"
       height="0.69095689"
       x="162.56325"
       y="88.271805"
       ry="0.083944216" />
    <text
       xml:space="preserve"
       style="font-size:0.669807px;font-family:'DejaVu Sans';-inkscape-font-specification:'DejaVu Sans, Normal';text-align:start;writing-mode:lr-tb;direction:ltr;text-anchor:start;fill:#ffffff;fill-opacity:1;stroke:#030000;stroke-width:0;stroke-dasharray:none;stroke-opacity:1"
       x="155.58302"
       y="62.9333"
       id="text51"><tspan
         sodipodi:role="line"
         id="tspan51"
         style="text-align:start;text-anchor:start;fill:#ffffff;stroke-width:0"
         x="155.58302"
         y="62.9333">root@pc_do_fabio:~# apt install -y nginx</tspan><tspan
         sodipodi:role="line"
         style="text-align:start;text-anchor:start;fill:#ffffff;stroke-width:0"
         x="155.58302"
         y="63.77058"
         id="tspan52">root@pc_do_fabio:~# systemctl enable nginx</tspan><tspan
         sodipodi:role="line"
         style="text-align:start;text-anchor:start;fill:#ffffff;stroke-width:0"
         x="155.58302"
         y="64.607803"
         id="tspan53">root@pc_do_fabio:~# systemctl start nginx</tspan><tspan
         sodipodi:role="line"
         style="text-align:start;text-anchor:start;fill:#ffffff;stroke-width:0"
         x="155.58302"
         y="65.445084"
         id="tspan54" /><tspan
         sodipodi:role="line"
         style="text-align:start;text-anchor:start;fill:#ffffff;stroke-width:0"
         x="155.58302"
         y="66.282364"
         id="tspan55" /></text>
    <text
       xml:space="preserve"
       style="font-size:11.1596px;font-family:'DejaVu Sans';-inkscape-font-specification:'DejaVu Sans, Normal';text-align:center;writing-mode:lr-tb;direction:ltr;text-anchor:middle;fill:#ffffff;fill-opacity:0.92;stroke:#ff0000;stroke-width:0"
       x="78.723923"
       y="84.293839"
       id="text2-0-3-2-2"><tspan
         sodipodi:role="line"
         id="tspan2-9-3-5-0-1"
         style="fill:#ffffff;stroke-width:0"
         x="78.723923"
         y="84.293839">2.0 – Instalação resumida</tspan></text>
    <text
       xml:space="preserve"
       style="font-size:7.39901px;font-family:'DejaVu Sans';-inkscape-font-specification:'DejaVu Sans, Normal';text-align:center;writing-mode:lr-tb;direction:ltr;text-anchor:middle;fill:#ffffff;fill-opacity:0.92;stroke:#ff0000;stroke-width:0"
       x="107.38347"
       y="93.904251"
       id="text2-0-3-2-2-0"><tspan
         sodipodi:role="line"
         id="tspan2-9-3-5-0-1-8"
         style="fill:#ffffff;stroke-width:0"
         x="107.38347"
         y="93.904251">Somente os comandos</tspan></text>
    <path
       id="path55"
       style="fill:#ffffff;fill-opacity:1;stroke:#030000;stroke-width:0;stroke-dasharray:none;stroke-opacity:1"
       d="m 188.0074,71.14414 a 10.646802,10.968073 0 0 0 -10.24224,11.25202 l 0.0228,0.48214 a 10.646802,10.968073 0 0 0 0.68972,3.14555 2.8385489,4.8731668 54.137325 0 0 -3.39215,1.44694 2.8385489,4.8731668 54.137325 0 0 -0.91255,0.8077 4.87783,3.2740514 0 0 0 -1.18254,1.66915 2.8385489,4.8731668 54.137325 0 0 0.015,2.62826 l 0.0819,0.0946 a 2.8385489,4.8731668 54.137325 0 0 2.27231,0.62167 4.87783,3.2740514 0 0 0 2.25625,0.43873 4.8744093,3.276349 30.084383 0 0 0.57468,0.34055 4.8744093,3.276349 30.084383 0 0 5.68934,-0.65784 4.8744093,3.276349 30.084383 0 0 0.21298,-1.29088 10.646802,10.968073 0 0 0 4.94985,0.93018 10.646802,10.968073 0 0 0 1.90542,-0.30024 4.6198678,6.1271539 0 0 0 3.89118,2.32027 4.6198678,6.1271539 0 0 0 3.13459,-2.00298 l 0.006,0.0103 3.65487,-2.06861 a 1.960942,1.2179915 48.748389 0 0 0.56899,-0.24908 1.960942,1.2179915 48.748389 0 0 -0.48711,-2.29599 1.960942,1.2179915 48.748389 0 0 -0.87939,-0.64544 5.7184302,4.2878125 52.845783 0 0 -1.92615,-3.94084 10.646802,10.968073 0 0 0 0.13111,-2.30942 10.646802,10.968073 0 0 0 -11.0351,-10.42675 z" />
    <path
       style="fill:#000000;stroke-width:0.598265"
       d="m 193.4708,95.34926 c -0.69856,-0.16329 -1.58277,-0.82534 -1.8378,-1.37632 -0.19563,-0.42332 -0.2835,-0.45521 -1.705,-0.62232 -1.92292,-0.22603 -2.90533,-0.21847 -4.53509,0.0345 -1.18956,0.18505 -1.36798,0.2595 -1.829,0.76149 -0.28073,0.30607 -0.77242,0.63902 -1.09211,0.73993 -0.96173,0.30355 -2.54651,0.10311 -4.11821,-0.52179 -0.93624,-0.37207 -1.87111,-0.61162 -2.83248,-0.72579 -2.01305,-0.23914 -2.76994,-0.52772 -3.09531,-1.18028 -0.2409,-0.48277 -0.24119,-0.61375 -0.01,-1.56994 0.18976,-0.77529 0.22052,-1.30155 0.12135,-2.04944 -0.19309,-1.45367 0.0854,-1.93635 1.50003,-2.59873 0.70469,-0.33007 1.28852,-0.74447 1.66083,-1.17906 0.52915,-0.61763 0.57939,-0.76599 0.64094,-1.89064 0.12938,-2.36829 1.38148,-5.07749 3.74678,-8.10836 2.26426,-2.90142 2.60031,-3.9106 2.42197,-7.27225 -0.13114,-2.47411 0.0602,-3.90499 0.68106,-5.09125 0.89337,-1.70677 2.3604,-2.41884 4.98646,-2.42036 1.50818,-5.4e-4 1.69956,0.0343 2.58627,0.47873 2.00599,1.00486 2.77908,2.89704 2.90765,7.11667 0.10372,3.39003 0.15938,3.52806 2.75719,6.80628 0.81214,1.02483 1.75211,2.33445 2.08882,2.91035 1.26746,2.16764 1.77211,4.43175 1.3853,6.21427 -0.18917,0.87195 -0.18368,0.90486 0.21107,1.22366 0.50916,0.41154 0.71229,0.79806 0.9305,1.77126 0.10404,0.46311 0.42338,1.09227 0.8011,1.57623 1.28157,1.64282 1.03232,2.28345 -1.36596,3.51092 -1.07756,0.55149 -1.95651,1.14853 -2.69507,1.83045 -1.50464,1.3894 -2.97239,1.94441 -4.31379,1.6312 z m 2.09959,-0.76394 c 0.39177,-0.16068 1.26826,-0.78513 1.94791,-1.38783 0.80185,-0.7111 1.69404,-1.31618 2.5418,-1.72389 2.17797,-1.04735 2.36628,-1.44891 1.30995,-2.79348 -0.37331,-0.47552 -0.71678,-1.13728 -0.83098,-1.60234 -0.24789,-1.00869 -0.55712,-1.59192 -0.95142,-1.79378 -0.46865,-0.23972 -1.39766,-0.19231 -1.63735,0.0842 -0.36371,0.41914 -1.40667,0.84014 -2.08136,0.84014 -0.77015,0 -1.41176,-0.55342 -1.56855,-1.35289 -0.11233,-0.57309 -0.23055,-0.62056 -0.58363,-0.23389 -0.49031,0.53765 -0.62756,0.99665 -0.77377,2.58797 -0.0817,0.88988 -0.34354,2.29999 -0.58179,3.13361 -0.54265,1.89886 -0.58189,2.9731 -0.13017,3.56215 0.72197,0.94156 2.0446,1.2109 3.33941,0.68008 z M 181.90637,94.4044 c 1.54548,-0.31698 2.20147,-1.60512 1.50809,-2.96107 -0.18858,-0.36773 -0.77918,-1.191 -1.31363,-1.82961 -0.53445,-0.63851 -1.33907,-1.82284 -1.78801,-2.63173 -1.16077,-2.09106 -1.71361,-2.63161 -2.69133,-2.63161 -0.43652,0 -0.66854,0.16105 -1.44616,1.00272 -0.6726,0.7281 -1.17424,0.97536 -1.66952,1.25949 -0.3758,0.21558 -0.89633,0.50466 -1.07242,0.74669 -0.29529,0.40586 -0.42077,0.37213 -0.31758,1.48922 0.0711,0.7685 0.0398,1.50244 -0.0878,2.0485 -0.23963,1.02444 -0.12897,1.54935 0.37337,1.7683 0.20619,0.09 1.06372,0.24959 1.90572,0.35429 0.95323,0.11906 2.05419,0.3873 2.91783,0.71123 1.15516,0.43337 2.1991,0.74254 2.77283,0.82119 0.0624,0.009 0.47139,-0.0577 0.90877,-0.14794 z m 7.57377,-2.95156 c 0.54381,-0.16574 1.31781,-0.5013 1.71995,-0.74523 0.84474,-0.51235 0.99702,-0.92765 1.2528,-3.41596 0.22022,-2.1432 0.52871,-2.9099 1.34651,-3.34763 0.15721,-0.0846 0.41157,-0.39238 0.56447,-0.68452 0.15565,-0.29756 0.4669,-0.59388 0.70711,-0.67354 0.96727,-0.32067 3.30197,0.75851 3.47963,1.60849 0.12232,0.58491 0.3804,0.60902 0.3804,0.0358 0,-0.60614 -0.37948,-1.05384 -1.33623,-1.57647 l -0.82771,-0.45216 0.0392,-0.85986 c 0.0465,-0.9484 -0.29321,-2.24588 -0.87333,-3.34073 -0.4973,-0.93866 -1.73946,-2.4331 -1.82304,-2.19339 -0.0349,0.1035 0.16857,0.44388 0.45493,0.75581 1.12446,1.22499 1.78686,3.24443 1.53387,4.67669 -0.0916,0.51973 -0.17662,0.63359 -0.47215,0.63359 -0.31058,0 -0.41063,-0.16725 -0.72602,-1.2108 -0.20136,-0.66599 -0.90429,-2.28563 -1.56231,-3.59925 -0.65808,-1.31359 -1.4721,-3.20483 -1.80897,-4.20265 -0.33693,-0.99785 -0.69466,-1.81641 -0.795,-1.81898 -0.10037,-8.8e-4 -0.27098,0.0979 -0.37998,0.22255 -0.38037,0.43823 -3.14718,1.63026 -3.78409,1.63026 -0.69403,0 -0.98194,-0.12506 -1.99997,-0.86827 -0.39706,-0.28974 -0.77815,-0.49372 -0.84689,-0.45311 -0.0688,0.0407 -0.16799,0.41708 -0.21929,0.83648 -0.13447,1.08774 -0.78655,2.8608 -1.97958,5.38431 -0.95238,2.01446 -1.33387,3.13419 -1.62701,4.77593 l -0.11075,0.61926 -0.308,-0.61926 c -0.50016,-1.00521 -0.34439,-2.61147 0.41334,-4.25714 0.7837,-1.70257 0.83292,-1.84751 0.49922,-1.47065 -0.45714,0.51598 -1.3458,2.41522 -1.62772,3.47815 -0.30882,1.16563 -0.23113,2.18715 0.23238,3.05187 0.3659,0.68239 0.67969,0.96796 2.13107,1.939 2.07088,1.38558 3.0652,2.8121 2.51738,3.61174 -0.14367,0.20946 -0.40494,0.38112 -0.58109,0.38112 -0.45999,0 -0.39707,0.26529 0.2397,1.00818 1.26363,1.47493 3.64066,1.914 6.17507,1.14051 z m 6.91249,-6.19297 c 0.56444,-0.27812 1.08191,-0.78708 1.08191,-1.06432 0,-0.37469 -0.63695,-0.8844 -1.44646,-1.15757 -0.64471,-0.21759 -0.74497,-0.21643 -1.10713,0.009 -0.34834,0.21845 -0.38827,0.33434 -0.3181,0.92832 0.14976,1.27121 0.82766,1.75716 1.78994,1.28312 z m -7.69575,-13.36996 c 1.55364,-0.74944 1.89783,-1.02279 2.05715,-1.63365 0.13938,-0.53254 -0.1327,-0.73614 -2.15899,-1.62008 -1.97243,-0.86024 -2.59397,-0.87517 -3.56212,-0.0859 -0.32333,0.26385 -0.82428,0.63501 -1.11322,0.82501 -1.00086,0.65824 -0.90021,1.19548 0.40272,2.15034 1.30612,0.95725 1.49928,1.04742 2.25635,1.05361 0.48797,8.8e-4 1.07906,-0.18851 2.11817,-0.68976 z m -3.62165,-0.50222 c -0.69422,-0.37727 -1.5204,-1.0698 -1.5204,-1.27445 0,-0.0934 0.40586,0.12298 0.90171,0.4813 0.72584,0.52411 1.06538,0.66405 1.74157,0.71769 0.75472,0.0596 0.98515,-0.006 2.27159,-0.65562 0.78744,-0.39718 1.47329,-0.68234 1.52418,-0.63362 0.12742,0.12186 -0.34659,0.43481 -1.56385,1.03225 -1.26835,0.62251 -2.58151,0.75264 -3.3548,0.33245 z m -0.7111,-2.6801 c 0,-0.0712 -0.0731,-0.17231 -0.16192,-0.22488 -0.26794,-0.15823 -0.19859,-1.46681 0.0827,-1.57024 0.34306,-0.12598 0.72623,0.22252 0.72623,0.66041 0,0.25686 0.0919,0.36805 0.30414,0.36805 0.49729,0 0.66486,-0.33028 0.507,-0.99959 -0.31985,-1.3559 -1.33355,-1.87685 -2.11083,-1.08472 -0.77515,0.78996 -0.41679,3.37242 0.42472,3.06349 0.12467,-0.0455 0.22776,-0.14172 0.22776,-0.21266 z m 6.23975,-0.21994 c 0.46803,-1.07134 0.19426,-2.38499 -0.63532,-3.04796 -0.2041,-0.16386 -0.61601,-0.27725 -1.01526,-0.28014 -0.56615,-0.002 -0.74792,0.0785 -1.16251,0.53009 -0.5763,0.62783 -0.87003,1.88332 -0.49384,2.1112 0.42377,0.25657 0.78986,0.15786 0.78986,-0.21237 0,-0.48121 0.43698,-1.04071 0.8128,-1.04071 0.53611,0 0.85463,0.97904 0.58384,1.79494 -0.0802,0.24174 -0.0176,0.3653 0.25976,0.49186 0.55343,0.25511 0.60726,0.23358 0.86069,-0.34678 z"
       id="path4-3-9-9-4-1-7-8-5-8-9-6"
       sodipodi:nodetypes="ccsccssssccsscssscccssscccssccssscsscsscsssssccssssssscscsccccsscsssssccscscssssccssscsscscscssssccccssccccccscsscccsscccsssccssssscccsccssssscss" />
  </g>
</svg>
