<?xml version="1.0" encoding="UTF-8" standalone="no"?>
<!-- Created with Inkscape (http://www.inkscape.org/) -->

<svg
   width="210mm"
   height="297mm"
   viewBox="0 0 210 297"
   version="1.1"
   id="svg1"
   inkscape:version="1.4 (e7c3feb100, 2024-10-09)"
   sodipodi:docname="3.0-0 – Script de instalação.svg"
   inkscape:export-filename="3.0-0 – Script de instalação.png"
   inkscape:export-xdpi="96"
   inkscape:export-ydpi="96"
   xmlns:inkscape="http://www.inkscape.org/namespaces/inkscape"
   xmlns:sodipodi="http://sodipodi.sourceforge.net/DTD/sodipodi-0.dtd"
   xmlns="http://www.w3.org/2000/svg"
   xmlns:svg="http://www.w3.org/2000/svg">
  <sodipodi:namedview
     id="namedview1"
     pagecolor="#ffffff"
     bordercolor="#000000"
     borderopacity="0.25"
     inkscape:showpageshadow="2"
     inkscape:pageopacity="0.0"
     inkscape:pagecheckerboard="0"
     inkscape:deskcolor="#d1d1d1"
     inkscape:document-units="mm"
     inkscape:zoom="1.0759173"
     inkscape:cx="535.82184"
     inkscape:cy="72.031557"
     inkscape:window-width="1717"
     inkscape:window-height="928"
     inkscape:window-x="26"
     inkscape:window-y="23"
     inkscape:window-maximized="0"
     inkscape:current-layer="layer1" />
  <defs
     id="defs1" />
  <g
     inkscape:label="Camada 1"
     inkscape:groupmode="layer"
     id="layer1">
    <rect
       style="fill:#217867;fill-opacity:0.92;stroke:#ff0000;stroke-width:0"
       id="rect2-28"
       width="203.90434"
       height="16.403273"
       x="1.8062971"
       y="54.589828"
       ry="0" />
    <text
       xml:space="preserve"
       style="font-size:11.1596px;font-family:'DejaVu Sans';-inkscape-font-specification:'DejaVu Sans, Normal';text-align:center;writing-mode:lr-tb;direction:ltr;text-anchor:middle;fill:#ffffff;fill-opacity:0.92;stroke:#ff0000;stroke-width:0"
       x="78.703392"
       y="66.558319"
       id="text2-0"><tspan
         sodipodi:role="line"
         id="tspan2-9-3"
         style="fill:#ffffff;stroke-width:0"
         x="78.703392"
         y="66.558319">3.0 – Script de instalação</tspan></text>
    <rect
       style="fill:#1a1a1a;fill-opacity:1;stroke:#000000;stroke-width:0;stroke-dasharray:none;stroke-opacity:1"
       id="rect6-54-7-9-2"
       width="45.841396"
       height="30.878613"
       x="156.90895"
       y="44.795685"
       ry="1.6201743" />
    <rect
       style="fill:#cccccc;fill-opacity:1;stroke:#000000;stroke-width:0;stroke-dasharray:none;stroke-opacity:1"
       id="rect6-4-7-3-2-8"
       width="57.028191"
       height="1.7659782"
       x="151.31848"
       y="75.522636"
       ry="0.092659354" />
    <rect
       style="fill:#f9f9f9;fill-opacity:1;stroke:#000000;stroke-width:0;stroke-dasharray:none;stroke-opacity:1"
       id="rect6-5-1-9-6-8"
       width="42.304253"
       height="27.257048"
       x="158.57629"
       y="46.56234"
       ry="1.4301536" />
    <rect
       style="fill:#ffffff;stroke:#000000;stroke-width:0.259586;stroke-dasharray:none"
       id="rect1-64-9"
       width="38.641487"
       height="3.3207371"
       x="159.4664"
       y="66.977821"
       ry="1.6603686" />
    <rect
       style="fill:#1a1a1a;stroke:#000000;stroke-width:0.208728;stroke-dasharray:none"
       id="rect1-3-9-2"
       width="32.353218"
       height="2.564266"
       x="159.86174"
       y="67.340302"
       ry="1.282133" />
    <path
       style="fill:#000000;stroke-width:0.312071"
       d="m 178.5555,66.891636 c -0.35636,-0.08712 -0.80743,-0.440214 -0.93753,-0.734094 -0.0998,-0.225789 -0.14462,-0.242805 -0.86978,-0.331935 -0.98095,-0.120562 -1.48211,-0.116525 -2.31351,0.01837 -0.60684,0.09868 -0.69786,0.138409 -0.93304,0.406168 -0.14321,0.163243 -0.39404,0.340833 -0.55712,0.39465 -0.49062,0.161915 -1.29907,0.05498 -2.10085,-0.278306 -0.47761,-0.198454 -0.95452,-0.326216 -1.44495,-0.387114 -1.02693,-0.127554 -1.41305,-0.28147 -1.57903,-0.629537 -0.12289,-0.257494 -0.12304,-0.327356 -0.005,-0.837364 0.0968,-0.413523 0.11249,-0.694209 0.0619,-1.093123 -0.0985,-0.775354 0.0436,-1.032802 0.76522,-1.386105 0.35949,-0.176041 0.65732,-0.397077 0.84725,-0.62888 0.26994,-0.329428 0.29557,-0.408555 0.32697,-1.008411 0.066,-1.263197 0.70474,-2.708214 1.91136,-4.324802 1.15508,-1.547557 1.32652,-2.085825 1.23554,-3.878848 -0.0669,-1.31963 0.0307,-2.082822 0.34743,-2.715543 0.45574,-0.910357 1.20413,-1.29015 2.54377,-1.290961 0.76938,-2.88e-4 0.86701,0.0183 1.31935,0.255343 1.02333,0.535961 1.41771,1.54521 1.4833,3.79586 0.0529,1.808156 0.0813,1.881779 1.40654,3.630298 0.4143,0.546621 0.89381,1.245141 1.06558,1.55231 0.64658,1.156173 0.90402,2.363789 0.70669,3.314534 -0.0965,0.465081 -0.0937,0.482634 0.10768,0.652675 0.25974,0.219506 0.36336,0.425671 0.47468,0.944751 0.0531,0.247009 0.21598,0.582585 0.40867,0.840717 0.65377,0.876237 0.52662,1.217941 -0.69683,1.87264 -0.5497,0.294155 -0.99808,0.612601 -1.37485,0.976323 -0.76757,0.741067 -1.51632,1.037093 -2.20062,0.870036 z m 1.07107,-0.407469 c 0.19986,-0.08568 0.64699,-0.418766 0.9937,-0.740229 0.40906,-0.379289 0.8642,-0.702013 1.29667,-0.919488 1.11106,-0.55863 1.20712,-0.772813 0.66825,-1.489965 -0.19044,-0.253633 -0.36566,-0.606601 -0.42391,-0.854656 -0.12646,-0.538013 -0.28421,-0.84909 -0.48535,-0.956759 -0.23908,-0.127862 -0.713,-0.102566 -0.83528,0.04492 -0.18554,0.223556 -0.71759,0.448112 -1.06177,0.448112 -0.39288,0 -0.72019,-0.295181 -0.80018,-0.721604 -0.0573,-0.305667 -0.11761,-0.33099 -0.29773,-0.124752 -0.25012,0.286774 -0.32014,0.531597 -0.39473,1.38036 -0.0417,0.474641 -0.17525,1.226764 -0.29679,1.67139 -0.27682,1.012815 -0.29684,1.585786 -0.0664,1.899968 0.3683,0.502204 1.04302,0.645862 1.70355,0.362736 z m -6.9705,-0.09651 c 0.7884,-0.169068 1.12305,-0.85613 0.76933,-1.579356 -0.0962,-0.196142 -0.39749,-0.635249 -0.67013,-0.975874 -0.27264,-0.340571 -0.68311,-0.97226 -0.91213,-1.403698 -0.59215,-1.115315 -0.87417,-1.403637 -1.37294,-1.403637 -0.22269,0 -0.34105,0.08588 -0.73774,0.534829 -0.34312,0.388347 -0.57636,0.572353 -0.85168,0.671775 -0.20858,0.07527 -0.46612,0.230717 -0.57239,0.345358 -0.18016,0.194419 -0.18934,0.251401 -0.1367,0.847227 0.0363,0.409896 0.0203,0.801374 -0.0448,1.09262 -0.12225,0.546407 -0.0658,0.826389 0.19046,0.943169 0.10519,0.048 0.54265,0.133119 0.97218,0.188968 0.48628,0.06349 1.04792,0.206573 1.48849,0.37935 0.58929,0.231152 1.12184,0.396057 1.41452,0.438001 0.0318,0.0047 0.24047,-0.03084 0.4636,-0.07887 z m 3.86365,-1.574288 c 0.27742,-0.08843 0.67226,-0.267377 0.87741,-0.397492 0.43093,-0.273271 0.50862,-0.494782 0.6391,-1.821988 0.11234,-1.143132 0.26971,-1.552056 0.6869,-1.785542 0.0802,-0.04512 0.20996,-0.209289 0.28796,-0.365102 0.0794,-0.15871 0.23818,-0.316763 0.36072,-0.35925 0.49344,-0.171033 1.68445,0.404579 1.77508,0.857927 0.0624,0.311976 0.19406,0.324842 0.19406,0.01911 0,-0.3233 -0.19359,-0.562089 -0.68166,-0.840851 l -0.42225,-0.241169 0.02,-0.458631 c 0.0237,-0.505852 -0.14958,-1.197888 -0.44552,-1.781861 -0.25369,-0.500656 -0.88736,-1.297759 -0.93,-1.169904 -0.0178,0.05518 0.086,0.236758 0.23208,0.403138 0.57363,0.653379 0.91154,1.730498 0.78248,2.494427 -0.0467,0.277213 -0.0901,0.337943 -0.24086,0.337943 -0.15844,0 -0.20948,-0.08919 -0.37037,-0.645816 -0.10272,-0.355213 -0.46131,-1.219101 -0.79699,-1.919746 -0.33571,-0.700646 -0.75097,-1.709378 -0.92282,-2.241592 -0.17188,-0.532234 -0.35437,-0.968827 -0.40556,-0.970195 -0.0512,-6.7e-4 -0.13824,0.05216 -0.19384,0.118691 -0.19404,0.233747 -1.60549,0.869539 -1.9304,0.869539 -0.35405,0 -0.50092,-0.06671 -1.02026,-0.463103 -0.20255,-0.154547 -0.39696,-0.263341 -0.43202,-0.241679 -0.0351,0.02172 -0.0857,0.222457 -0.11187,0.446154 -0.0686,0.580172 -0.40125,1.525882 -1.00986,2.871866 -0.48584,1.074458 -0.68045,1.671699 -0.82999,2.54736 l -0.0565,0.330299 -0.15712,-0.330299 c -0.25515,-0.536156 -0.17569,-1.392897 0.21085,-2.270649 0.3998,-0.908118 0.42491,-0.985428 0.25468,-0.784412 -0.23321,0.275208 -0.68654,1.288218 -0.83036,1.855155 -0.15754,0.621726 -0.11791,1.166577 0.11854,1.62779 0.18666,0.363976 0.34674,0.51629 1.08714,1.034223 1.05643,0.739029 1.56367,1.499902 1.28421,1.926411 -0.0733,0.111718 -0.20658,0.203276 -0.29644,0.203276 -0.23466,0 -0.20256,0.141506 0.12228,0.537738 0.64462,0.786691 1.85723,1.020888 3.15012,0.60833 z m 3.52631,-3.303183 c 0.28794,-0.148331 0.55192,-0.419805 0.55192,-0.567674 0,-0.199849 -0.32493,-0.471718 -0.73789,-0.617422 -0.32889,-0.116055 -0.38004,-0.115439 -0.56479,0.0054 -0.1777,0.116525 -0.19807,0.178328 -0.16227,0.495144 0.0764,0.678038 0.42222,0.937229 0.91311,0.684387 z m -3.92588,-7.131205 c 0.79257,-0.399732 0.96815,-0.545529 1.04943,-0.87135 0.0711,-0.284038 -0.0677,-0.392631 -1.10138,-0.864115 -1.00621,-0.458826 -1.32328,-0.466791 -1.81717,-0.04579 -0.16494,0.140735 -0.42049,0.338707 -0.56789,0.440046 -0.51057,0.351084 -0.45923,0.637636 0.20544,1.14694 0.6663,0.510565 0.76484,0.55867 1.15105,0.561969 0.24893,6.7e-4 0.55047,-0.100548 1.08055,-0.367899 z m -1.84753,-0.267873 c -0.35415,-0.201217 -0.77561,-0.570597 -0.77561,-0.679761 0,-0.04975 0.20704,0.06557 0.45999,0.256711 0.37028,0.279552 0.54349,0.354194 0.88844,0.382802 0.38501,0.03178 0.50256,-0.0027 1.15882,-0.349689 0.4017,-0.211837 0.75158,-0.363943 0.77754,-0.337963 0.065,0.06504 -0.17681,0.231924 -0.79778,0.550578 -0.64703,0.332036 -1.31692,0.401441 -1.7114,0.177322 z m -0.36276,-1.429497 c 0,-0.03802 -0.0373,-0.09186 -0.0826,-0.119938 -0.13669,-0.08441 -0.10131,-0.782367 0.0422,-0.837538 0.17501,-0.06718 0.37048,0.118697 0.37048,0.352243 0,0.137008 0.0469,0.196316 0.15515,0.196316 0.25369,0 0.33917,-0.176169 0.25864,-0.533152 -0.16317,-0.723213 -0.68029,-1.001076 -1.07681,-0.578576 -0.39543,0.421354 -0.21262,1.798777 0.21667,1.634006 0.0636,-0.02434 0.11619,-0.07556 0.11619,-0.113428 z m 3.18312,-0.117309 c 0.23876,-0.571429 0.0991,-1.272094 -0.3241,-1.625712 -0.10412,-0.08736 -0.31425,-0.147869 -0.51792,-0.149418 -0.28881,-0.0013 -0.38154,0.0419 -0.59304,0.282738 -0.29399,0.334872 -0.44383,1.004522 -0.25192,1.126055 0.21618,0.136853 0.40293,0.08425 0.40293,-0.113266 0,-0.256671 0.22292,-0.55509 0.41464,-0.55509 0.27349,0 0.43598,0.522197 0.29784,0.957382 -0.0409,0.128942 -0.009,0.194835 0.13251,0.262336 0.28233,0.136076 0.30979,0.124591 0.43907,-0.184958 z"
       id="path4-3-9-9-4-1-7-8-5-8" />
    <path
       style="fill:#ffaaaa;fill-opacity:1;stroke:#000000;stroke-width:0;stroke-dasharray:none;stroke-opacity:1"
       id="path6-5-2-0-8"
       sodipodi:type="arc"
       sodipodi:cx="178.71239"
       sodipodi:cy="45.487133"
       sodipodi:rx="0.29078028"
       sodipodi:ry="0.33669296"
       sodipodi:start="3.17482"
       sodipodi:end="3.1616747"
       sodipodi:open="true"
       sodipodi:arc-type="arc"
       d="m 178.42177,45.475948 a 0.29078028,0.33669296 0 0 1 0.29932,-0.325357 0.29078028,0.33669296 0 0 1 0.28197,0.345515 0.29078028,0.33669296 0 0 1 -0.29747,0.327628 0.29078028,0.33669296 0 0 1 -0.28392,-0.343362" />
    <text
       xml:space="preserve"
       style="font-size:1.96689px;line-height:normal;font-family:sans-serif;-inkscape-font-specification:'sans-serif, Normal';text-align:center;text-decoration-color:#000000;writing-mode:lr-tb;direction:ltr;text-anchor:middle;fill:#1a1a1a;stroke:#000000;stroke-width:0;stroke-dasharray:none"
       x="194.83377"
       y="69.704697"
       id="text2-1-7-8"><tspan
         sodipodi:role="line"
         id="tspan2-2-2-3"
         style="stroke-width:0"
         x="194.83377"
         y="69.704697">...</tspan></text>
    <rect
       style="fill:#cccccc;fill-opacity:1;stroke:#000000;stroke-width:0;stroke-dasharray:none;stroke-opacity:1"
       id="rect6-4-4-32-7-9-7"
       width="57.028191"
       height="1.7659782"
       x="151.32549"
       y="76.276337"
       ry="0.83395267" />
    <path
       id="rect6-4-4-3-2-2-4-68"
       style="fill:#666666;fill-opacity:1;stroke:#000000;stroke-width:0;stroke-dasharray:none;stroke-opacity:1"
       d="m 151.47989,77.625478 c 0.0264,0.237052 0.22566,0.419912 0.46877,0.419912 h 55.7986 c 0.24311,0 0.442,-0.18286 0.46839,-0.419912 z" />
    <rect
       style="fill:#999999;fill-opacity:1;stroke:#000000;stroke-width:0;stroke-dasharray:none;stroke-opacity:1"
       id="rect6-4-4-8-3-9-9-9"
       width="14.146963"
       height="0.92359895"
       x="173.16994"
       y="75.535042"
       ry="0.43615359" />
    <rect
       style="fill:#c8beb7;stroke:#000000;stroke-width:0.0757118;stroke-dasharray:none"
       id="rect2-0-06"
       width="10.637272"
       height="12.858981"
       x="184.74352"
       y="49.004822"
       ry="0" />
    <rect
       style="fill:#1a1a1a;stroke:#000000;stroke-width:0.0735958;stroke-dasharray:none"
       id="rect4-3-8"
       width="9.2928963"
       height="0.33873829"
       x="185.62848"
       y="49.754406" />
    <rect
       style="fill:#1a1a1a;stroke:#000000;stroke-width:0.0735958;stroke-dasharray:none"
       id="rect4-1-1-7"
       width="9.2928963"
       height="0.33873829"
       x="185.61624"
       y="50.506264" />
    <rect
       style="fill:#1a1a1a;stroke:#000000;stroke-width:0.0735958;stroke-dasharray:none"
       id="rect4-4-8-90"
       width="9.2928963"
       height="0.33873829"
       x="185.64349"
       y="51.351116" />
    <rect
       style="fill:#1a1a1a;stroke:#000000;stroke-width:0.0735958;stroke-dasharray:none"
       id="rect4-1-4-9-3"
       width="9.2928963"
       height="0.33873829"
       x="185.63126"
       y="52.102962" />
    <rect
       style="fill:#1a1a1a;stroke:#000000;stroke-width:0.0735958;stroke-dasharray:none"
       id="rect4-17-6-3"
       width="9.2928963"
       height="0.33873829"
       x="185.65135"
       y="52.953388" />
    <rect
       style="fill:#1a1a1a;stroke:#000000;stroke-width:0.0735958;stroke-dasharray:none"
       id="rect4-1-5-4-3"
       width="9.2928963"
       height="0.33873829"
       x="185.63911"
       y="53.705235" />
    <rect
       style="fill:#1a1a1a;stroke:#000000;stroke-width:0.0735958;stroke-dasharray:none"
       id="rect4-4-9-3-7"
       width="9.2928963"
       height="0.33873829"
       x="185.66637"
       y="54.550098" />
    <rect
       style="fill:#1a1a1a;stroke:#000000;stroke-width:0.0735958;stroke-dasharray:none"
       id="rect4-1-4-6-3-3"
       width="9.2928963"
       height="0.33873829"
       x="185.65417"
       y="55.301945" />
    <rect
       style="fill:#1a1a1a;stroke:#000000;stroke-width:0.0735958;stroke-dasharray:none"
       id="rect4-5-3-2"
       width="9.2928963"
       height="0.33873829"
       x="185.65028"
       y="56.003418" />
    <rect
       style="fill:#1a1a1a;stroke:#000000;stroke-width:0.0735958;stroke-dasharray:none"
       id="rect4-1-7-8-6"
       width="9.2928963"
       height="0.33873829"
       x="185.63805"
       y="56.755264" />
    <rect
       style="fill:#1a1a1a;stroke:#000000;stroke-width:0.0735958;stroke-dasharray:none"
       id="rect4-4-4-6-5"
       width="9.2928963"
       height="0.33873829"
       x="185.6653"
       y="57.600128" />
    <rect
       style="fill:#1a1a1a;stroke:#000000;stroke-width:0.0735958;stroke-dasharray:none"
       id="rect4-1-4-1-0-2"
       width="9.2928963"
       height="0.33873829"
       x="185.65311"
       y="58.351974" />
    <rect
       style="fill:#1a1a1a;stroke:#000000;stroke-width:0.0735958;stroke-dasharray:none"
       id="rect4-17-8-4-6"
       width="9.2928963"
       height="0.33873829"
       x="185.67316"
       y="59.202412" />
    <rect
       style="fill:#1a1a1a;stroke:#000000;stroke-width:0.0735958;stroke-dasharray:none"
       id="rect4-1-5-5-8-5"
       width="9.2928963"
       height="0.33873829"
       x="185.66096"
       y="59.954258" />
    <rect
       style="fill:#1a1a1a;stroke:#000000;stroke-width:0.0735958;stroke-dasharray:none"
       id="rect4-4-9-9-8-8"
       width="9.2928963"
       height="0.33873829"
       x="185.68822"
       y="60.79911" />
    <rect
       style="fill:#f4e3d7;stroke:#000000;stroke-width:0.0757118;stroke-dasharray:none"
       id="rect2-5-7"
       width="10.637272"
       height="12.858981"
       x="183.85399"
       y="49.612164"
       ry="0"
       inkscape:transform-center-x="3.7028477"
       inkscape:transform-center-y="3.3662255" />
    <text
       xml:space="preserve"
       style="font-size:2.40385px;line-height:normal;font-family:sans-serif;-inkscape-font-specification:'sans-serif, Normal';text-align:center;text-decoration-color:#000000;writing-mode:lr-tb;direction:ltr;text-anchor:middle;fill:#1a1a1a;stroke:#000000;stroke-width:0.0757118;stroke-dasharray:none"
       x="189.11685"
       y="52.675339"
       id="text3-9"><tspan
         sodipodi:role="line"
         id="tspan3-6"
         style="fill:#1a1a1a;stroke-width:0.0757118"
         x="189.11685"
         y="52.675339">Script</tspan></text>
    <rect
       style="fill:#1a1a1a;stroke:#000000;stroke-width:0.0735958;stroke-dasharray:none"
       id="rect4-17-0"
       width="9.2928963"
       height="0.33873829"
       x="184.55511"
       y="54.072998" />
    <rect
       style="fill:#1a1a1a;stroke:#000000;stroke-width:0.0735958;stroke-dasharray:none"
       id="rect4-1-5-41"
       width="9.2928963"
       height="0.33873829"
       x="184.54291"
       y="54.824844" />
    <rect
       style="fill:#1a1a1a;stroke:#000000;stroke-width:0.0735958;stroke-dasharray:none"
       id="rect4-4-9-0"
       width="9.2928963"
       height="0.33873829"
       x="184.57016"
       y="55.669704" />
    <rect
       style="fill:#1a1a1a;stroke:#000000;stroke-width:0.0735958;stroke-dasharray:none"
       id="rect4-1-4-6-4"
       width="9.2928963"
       height="0.33873829"
       x="184.55794"
       y="56.421551" />
    <rect
       style="fill:#1a1a1a;stroke:#000000;stroke-width:0.0735958;stroke-dasharray:none"
       id="rect4-5-9-8"
       width="9.2928963"
       height="0.33873829"
       x="184.55405"
       y="57.123035" />
    <rect
       style="fill:#1a1a1a;stroke:#000000;stroke-width:0.0735958;stroke-dasharray:none"
       id="rect4-1-7-7"
       width="9.2928963"
       height="0.33873829"
       x="184.54185"
       y="57.874924" />
    <rect
       style="fill:#1a1a1a;stroke:#000000;stroke-width:0.0735958;stroke-dasharray:none"
       id="rect4-4-4-0"
       width="9.2928963"
       height="0.33873829"
       x="184.56911"
       y="58.719776" />
    <rect
       style="fill:#1a1a1a;stroke:#000000;stroke-width:0.0735958;stroke-dasharray:none"
       id="rect4-1-4-1-8"
       width="9.2928963"
       height="0.33873829"
       x="184.55687"
       y="59.471622" />
    <rect
       style="fill:#1a1a1a;stroke:#000000;stroke-width:0.0735958;stroke-dasharray:none"
       id="rect4-17-8-6"
       width="9.2928963"
       height="0.33873829"
       x="184.57697"
       y="60.322006" />
    <rect
       style="fill:#1a1a1a;stroke:#000000;stroke-width:0.0735958;stroke-dasharray:none"
       id="rect4-1-5-5-2"
       width="9.2928963"
       height="0.33873829"
       x="184.56473"
       y="61.07386" />
    <rect
       style="fill:#1a1a1a;stroke:#000000;stroke-width:0.0735958;stroke-dasharray:none"
       id="rect4-4-9-9-47"
       width="9.2928963"
       height="0.33873829"
       x="184.59198"
       y="61.918762" />
  </g>
</svg>
